<?xml version="1.0" encoding="utf-8"?>
<!-- Generator: Adobe Illustrator 24.0.1, SVG Export Plug-In . SVG Version: 6.00 Build 0)  -->
<svg version="1.1" id="图层_1" xmlns="http://www.w3.org/2000/svg" xmlns:xlink="http://www.w3.org/1999/xlink" x="0px" y="0px"
	 viewBox="0 0 24 24" style="enable-background:new 0 0 24 24;" xml:space="preserve">
<path d="M3.4,0.5c-0.8-0.4-1.9,0.1-1.9,1v19.6c-0.7,0-1.3,0.5-1.3,1.2s0.6,1.2,1.3,1.2h1.3h18.3h1.3c0.7,0,1.3-0.5,1.3-1.2
	s-0.6-1.2-1.3-1.2V2.8c0-0.5-0.3-0.9-0.7-1.1l-2.6-1.2c-0.4-0.2-0.8-0.2-1.1,0l-2,1l-2-1c-0.4-0.2-0.8-0.2-1.1,0l-2,1l-2-1
	c-0.4-0.2-0.8-0.2-1.1,0c-0.3,0.1-1.3,0.6-2,1L3.4,0.5z M8.1,1.9l2,1c0.4,0.2,0.8,0.2,1.1,0l2-1l2,1c0.4,0.2,0.8,0.2,1.1,0l2-1
	L20.8,3v19.1H3.2v-20l1.7,0.8C5.3,3,5.7,3,6,2.9C6.3,2.7,7.4,2.2,8.1,1.9z"/>
<path d="M8.9,6.6c-0.8,0-1,0.4-1,1c0,0.5,0.2,1,1,1h6.2c0.8,0,1-0.4,1-1c0-0.5-0.2-1-1-1C15.1,6.6,8.9,6.6,8.9,6.6z"/>
<path d="M7.9,11c-0.8,0-1,0.4-1,1c0,0.5,0.2,1,1,1h8.2c0.8,0,1-0.4,1-1c0-0.5-0.2-1-1-1C16.1,11,7.9,11,7.9,11z"/>
<path d="M8.8,15.8c-0.8,0-1,0.4-1,1c0,0.5,0.2,1,1,1H15c0.8,0,1-0.4,1-1c0-0.5-0.2-1-1-1C15,15.8,8.8,15.8,8.8,15.8z"/>
</svg>
